# xmcd
#
# Track frame offsets:
#	150
#	14426
#	35292
#	53425
#	73441
#	89910
#	112057
#	131043
#	152159
#
# Disc length: 2382 seconds
#
# Revision: 1
# Processed by: cddbd v1.5.1PL0 Copyright (c) Steve Scherf et al.
# Submitted via: audiograbber 1.83.01
#
DISCID=80094c09
DTITLE=Climax Blues Band - Lucky For Some
DYEAR=1900
DGENRE=
TTITLE0=Victim
TTITLE1=Cuttin´ Up Rough
TTITLE2=Shake It Lucy
TTITLE3=Oceans Apart
TTITLE4=Breakdown
TTITLE5=Darlin`
TTITLE6=This Time You´re The Singer
TTITLE7=Last Change Saloon
TTITLE8=They´d Never Believe Us
EXTD=
EXTT0=
EXTT1=
EXTT2=
EXTT3=
EXTT4=
EXTT5=
EXTT6=
EXTT7=
EXTT8=
PLAYORDER=
